<svg width="744" height="988" viewBox="0 0 744 988" fill="none" xmlns="http://www.w3.org/2000/svg">
<path d="M76.844 4.38324C81.121 9.58715 85.7114 17.1196 88.9203 23.0398C89.928 24.8938 88.4507 24.6316 89.1072 25.9388C90.3924 28.4946 92.3304 30.3574 93.5318 32.931C93.9257 33.7869 91.8882 33.8041 92.3327 34.6795C94.7786 39.4698 98.0183 43.3539 100.82 47.9802C114.615 70.7694 129.078 92.5397 143.876 115.024C148.757 122.437 153.691 132.148 159.49 139.274C160.169 140.105 161.011 138.737 161.227 138.834C164.581 140.384 161.534 141.22 162.405 143.154C165.869 150.827 171.031 158.442 176.061 164.639C178.205 167.273 178.657 162.812 179.265 166.549C179.31 166.806 177.535 167 177.931 167.856C178.831 169.798 181.351 172.912 182.185 174.32C183.787 177.04 184.098 177.457 185.789 179.906C188.09 183.261 190.227 187.672 193.02 191.045C193.62 191.762 194.227 189.831 195.303 190.892C196.379 191.955 198.523 195.256 198.973 196.56C199.424 197.864 198.067 198.124 197.964 198.482C197.073 201.464 202.45 203.255 202.854 203.687C210.142 211.618 213.813 220.223 219.563 228.431C223.931 234.66 229.116 240.962 233.194 246.943C238.049 254.073 241.527 260.56 246.452 267.339C246.971 268.056 247.922 266.125 248.559 266.998C255.316 276.274 261.68 285.727 267.186 295.818C267.737 296.831 265.533 296.571 266.002 297.64C268.905 304.162 272.582 315.123 280.878 314.399C283.369 318.45 286.434 323.339 287.678 327.652C288.481 330.432 285.478 329.288 288.037 331.603C288.612 332.126 289.342 330.411 290.107 331.265C293.327 334.858 295.906 339.44 299.292 342.855C299.984 343.547 300.993 342.52 301.358 342.597C304.366 343.294 303.76 348.382 304.034 349.206C306.155 355.464 309.406 358.842 312.757 363.709C313.534 364.839 314.163 362.421 314.966 363.469C319.113 368.919 323.043 374.821 326.193 380.795C326.889 382.127 324.776 381.932 325.041 382.616C326.226 385.62 329.133 384.436 330.318 387.283C330.571 387.881 329.229 388.383 329.171 388.565C328.251 391.421 331.93 390.769 332.258 391.108C336.477 395.355 335.74 400.471 339.417 404.853C339.86 405.375 340.416 403.109 341.573 404.639C349.288 414.82 356.633 426.158 362.726 437.316C363.676 439.049 361.792 438.656 361.729 438.85C360.804 441.957 364.339 441.075 364.811 441.526C368.464 445.138 368.832 450.641 374.121 451.131C385.238 469.474 399.316 485.625 408.51 505.097C408.63 505.342 406.98 505.906 407.226 506.391C410.171 512.243 411.591 509.729 416.66 511.418C417.935 511.845 416.669 516.743 416.605 517.143C416.361 518.607 413.688 519.135 413.727 519.541C414.116 522.853 420.597 517.735 422.87 520.978C422.929 521.088 421.388 521.531 421.455 521.89C421.659 523.008 422.74 523.501 422.891 524.629C423.227 527.217 420.417 530.189 424.353 531.747C424.857 531.94 428.297 528.7 430.144 531.724C430.877 532.932 434.52 537.999 435.274 539.606C436.028 541.211 434.105 541.092 434.123 541.231C435.189 546.231 433.489 545.242 432.424 548.865C431.367 552.482 436.736 547.928 437.928 548.267C439.12 548.608 439.751 552.379 439.769 553.401C439.786 554.423 438.395 554.106 438.562 554.909C439.695 560.216 442.671 554.712 444.527 555.423C448.911 557.094 446.385 562.552 448.005 565.756C448.443 566.623 448.964 565.301 449.545 565.939C451.836 568.475 451.676 571.077 455.107 573.385C455.667 573.764 460.017 574.527 459.295 577.497C459.188 577.921 457.66 577.998 458.251 579.348C459.132 581.367 461.131 584.717 462.816 586.371C464.061 587.591 464.684 584.758 465.377 586.906C465.684 587.861 463.642 587.121 464.305 588.856C464.961 590.583 467.632 594.304 468.667 595.708C469.7 597.108 470.481 595.399 470.651 595.452C471.651 595.791 474.205 598.079 474.372 598.322C483.066 610.403 488.698 623.213 497.745 634.568C498.453 635.46 499.418 633.861 499.541 633.987C502.359 636.766 496.879 636.854 497.193 639.954C499.807 637.645 500.213 639.32 502.097 641.349C503.007 642.325 503.693 640.966 503.875 640.986C506.668 641.424 505.294 644.051 505.054 644.648C504.175 646.846 506.903 646.662 506.324 648.145C505.753 649.621 502.993 649.074 504.521 651.214C505.96 651.107 507.496 647.649 509.072 648.984C515.019 654.018 520.997 666.998 524.253 672.113C527.503 677.218 528.81 678.687 530.462 681.83C533.446 687.508 534.08 684.219 537.247 686.825C540.42 689.441 534.467 691.255 533.752 692.451C533.03 693.638 534.453 693.388 534.279 694.358C534.104 695.327 532.535 694.593 533.254 696.08C533.975 697.567 538.385 699.925 539.807 699.636C542.816 699.022 544.087 695.68 545.711 699.812C545.803 700.051 544.066 700.283 544.482 701.152C547.829 708.026 552.265 714.495 555.721 721.282C556.194 722.216 554.244 722.449 554.503 723.004C557.2 728.789 558.303 725.275 562.934 726.239C558.956 728.078 557.885 731.153 560.599 735.076C562.229 737.436 563.49 735.951 565.642 736.709C566.289 736.935 566.392 739.34 567.329 739.133C570.398 738.466 571.959 735.041 573.721 739.811C573.794 740.023 572.101 740.369 572.45 741.035C574.698 745.345 577.511 744.08 580.799 748.138C583.376 751.319 586.026 758.329 588.445 762.312C584.414 765.012 587.842 767.974 591.604 767.517C593.222 770.068 595.245 772.63 596.539 775.285C596.985 776.197 595.456 776.462 595.404 776.653C594.567 779.608 597.985 778.818 598.463 779.278C603.526 784.351 604.803 790.478 610.64 794.617C610.848 794.763 613.831 793.148 612.848 796.035C612.776 796.227 610.244 795.283 611.964 797.948C613.684 800.613 615.629 806.545 619.431 809.255C620.35 809.912 624.135 810.551 623.624 813.548C623.551 813.95 622.578 814.246 622.376 814.895C621.743 816.979 624.954 815.627 623.489 818.58C622.024 821.533 622.132 825.468 626.312 827.96C626.44 828.042 629.254 827.355 630.02 828.524C631.239 830.389 632.592 833.303 633.94 835.199C634.586 836.106 635.551 834.561 635.687 834.702C640.75 840.3 642.581 845.524 646.649 852.47C647.392 853.745 651.688 855.897 651.84 859.266C652.011 862.962 643.427 865.048 649.153 869.812C651.457 871.737 662.115 868.758 660.669 876.127C667.559 883.636 670.646 892.878 678.022 900.081C678.352 900.405 681.566 899.915 682.147 900.815C683.006 902.155 682.39 903.651 682.968 904.633C685.359 908.766 688.809 911.664 691.29 915.526C692.234 916.991 690.732 917.299 691.858 919.046C692.984 920.791 695.297 920.862 696.176 923.68C696.834 925.812 694.946 929.725 696.201 932.289C699.326 930.234 700.373 931.864 703.155 934.119C703.691 934.551 704.35 933.224 704.659 933.39C705.939 934.049 705.731 935.633 707.022 936.206C707.335 936.346 708.389 935.626 708.703 935.699C711.416 936.297 710.995 940.705 710.917 941.465C710.633 944.371 712.587 944.269 712.95 946.091C713.311 947.912 711.089 946.367 711.855 948.252C713.444 952.16 716.642 956.372 718.988 959.827C719.931 961.202 720.675 959.293 720.843 959.467C723.173 962.043 723.685 965.937 727.562 965.557C721.74 972.547 729.451 966.771 730.835 971.815C730.941 972.214 727.823 974.998 726.47 974.127C725.117 973.256 724.885 970.661 722.922 969.512C722.459 969.239 717.664 969.172 717.252 968.993C714.025 967.594 718.864 963.69 719.052 963.365C721.034 959.784 715.637 959.379 714.882 958.806C711.429 956.184 710.133 952.811 707.378 950.525C705.583 949.026 702.127 951.174 701.212 949.65C698.17 944.586 701.635 939.65 694.424 937.917C692.883 937.543 689.923 941.058 690.337 935.56C690.364 935.214 691.165 930.787 688.46 930.446C688.12 930.403 687.063 931.151 686.801 930.965C685.06 929.703 685.128 928.002 683.454 926.472C681.781 924.941 679.652 923.183 678.563 920.86C677.905 919.462 678.76 916.479 678.826 915.543C679.039 912.881 675.489 912.672 676.445 910.446C677.404 908.206 681.421 908.464 680.583 904.934C677.757 906.759 674.764 908.503 671.878 910.277C667.739 904.154 664.461 897.572 660.088 891.582C659.543 890.841 658.601 892.648 657.979 891.881C655.36 888.638 654.334 884.924 651.441 881.685C649.197 879.182 645.531 877.281 643.135 874.698C645.065 870.745 641.026 867.251 639.157 863.967C638.501 862.817 639.394 862.3 639.131 861.34C638.12 857.732 636.284 861.039 635.29 860.551C631.035 858.453 637.136 853.749 634.17 849.841C634.015 849.633 628.833 849.383 628.373 849.171C625.415 847.849 629.279 847.976 628.531 846.377C627.164 843.458 626.702 841.088 623.582 838.725C622.667 838.039 619.079 837.37 619.49 834.507C619.543 834.131 620.742 833.48 620.679 833.251C619.446 829.18 615.894 831.535 613.387 830.469C610.88 829.403 611.244 824.792 611.522 823.711C612.229 820.897 613.125 824.367 613.36 824.328C616.151 823.85 614.298 821.97 613.335 820.217C616.593 817.586 614.793 815.451 612.323 818.408C612.056 818.735 613.262 819.78 613.335 820.217C608.976 821.136 606.793 818.932 607.996 813.97C608.561 811.646 611.132 811.67 607.753 808.176C606.22 806.589 604.346 808.928 602.601 807.802C598.617 805.228 597.543 799.013 594.6 795.545C593.532 794.286 593.16 796.501 592.386 795.672C590.327 793.474 589.787 790.643 587.575 788.536C587.373 788.347 586.403 789.835 585.852 789.084C581.649 783.411 578.99 777.77 574.79 771.715C572.76 768.79 568.365 764.096 566.401 760.969C562.987 755.555 560.443 747.737 556.835 743.596C554.488 740.892 553.585 742.477 551.789 741.871C548.317 740.706 548.524 734.199 548.616 733.277C548.621 733.248 550.696 735.537 550.452 733.712C551.352 731.922 548.643 733.301 548.616 733.277C548.672 732.676 545.468 727.445 544.513 726.629C543.993 726.187 542.925 727.385 542.679 727.137C536.84 721.231 531.813 714.738 527.651 707.516C527.593 707.378 529.151 706.557 528.997 706.245C526.877 701.861 523.361 700.564 520.049 698.043C516.737 695.523 515.283 692.703 516.395 689.061C514.371 686.827 512.997 682.551 512.241 680.066C511.485 677.582 508.5 679.249 508.321 679.11C502.673 674.791 502.022 670.465 498.24 664.531C496.446 661.706 492.241 656.556 489.861 653.804C487.976 651.633 487.642 649.764 485.713 647.897C485.453 647.644 484.419 648.807 484.309 648.751C481.138 647.38 484.981 646.416 485.175 645.539C485.883 642.357 486.152 640.508 483.066 638.071C482.356 637.507 476.538 638.489 475.374 637.37C473.87 635.91 475.881 635.452 474.266 633.95C474.129 633.821 473.185 634.528 472.465 633.408C469.109 628.218 465.81 622.307 462.034 617.116C461.522 616.404 460.634 618.397 459.869 617.386C456.28 612.642 452.601 607.265 449.998 602.018C449.363 600.723 450.947 600.705 451.088 600.229C451.926 597.324 447.582 597.076 447.274 596.749C439.85 589.003 437.732 580.581 430.33 572.571C429.922 572.138 424.325 570.528 425.741 567.072C425.833 566.839 427.32 563.358 424.507 563.17C424.331 563.159 423.689 565.128 422.582 563.251C421.473 561.373 418.563 559.141 418.34 555.651C418.267 554.547 419.612 550.878 415.901 550.031C415.649 549.983 408.417 549.727 410.793 546.167C411.186 545.585 414.794 543.382 411.091 541.863C410.379 541.576 410.277 543.073 408.824 542.021C406.593 540.412 405.546 536.945 402.176 535.407C401.584 535.141 397.879 534.841 398.57 532.038C398.679 531.599 400.157 531.254 399.711 530.342C397.593 525.996 393.955 522.441 391.975 517.91C391.271 516.307 393.64 515.721 393.115 513.905C392.588 512.088 391.002 508.797 389.075 507.859C387.148 506.921 385.348 510.678 383.501 508.545C375.473 499.272 370.289 488.149 363.56 477.989C362.562 476.481 362.357 478.453 360.81 476.286C355.103 468.297 344.389 455.108 341.766 446.546C339.664 439.687 345.967 445.76 343.714 440.971C342.623 438.663 337.605 438.851 337.147 438.429C332.639 434.34 331.806 429.888 328.274 425.84C327.544 425.004 326.763 426.871 326.157 426.149C324.075 423.692 322.769 420.492 320.897 418.062C320.055 416.973 319.13 417.93 318.487 416.836C316.937 414.226 315.853 411.718 315.164 408.598C315.101 408.314 317.472 408.868 316.238 406.999C314.236 403.976 312.647 399.597 309.234 396.895C308.218 396.097 305.744 397.768 305.908 394.407C305.941 393.703 309.286 392.231 304.972 391.469C304.252 391.337 297.845 389.468 298.588 385.831C298.782 384.873 300.2 381.782 298.969 380.827C298.793 380.704 297.943 382.286 297.108 381.365C294.188 378.105 291.717 374.276 288.747 370.906C287.951 370.008 287.609 372.414 286.466 371.045C283.322 367.282 280.171 362.042 277.857 357.83C277.007 356.275 278.831 356.485 278.88 356.294C279.692 353.21 276.303 354.094 275.754 353.644C272.375 350.815 271.782 347.276 269.2 344.297C268.49 343.473 267.647 344.999 267.409 344.903C265.011 343.854 268.269 343.606 267.712 342.269C266.16 338.52 263.525 334.973 261.064 331.805C260.158 330.643 259.619 333.039 258.823 331.984C254.085 325.758 249.569 319.001 246.016 312.176C245.349 310.889 247.013 310.828 247.103 310.4C247.751 307.429 243.52 306.698 242.883 306.294C239.984 304.462 240.292 302.746 238.501 300.589C229.735 290.064 220.745 275.786 213.773 264.94C204.681 250.81 198.303 239.373 188.841 226.453C188.241 225.631 187.305 227.538 186.769 226.843C179.909 217.821 174.113 208.269 167.167 199.279C166.6 198.54 165.925 200.65 164.966 199.497C162.989 197.139 160.841 193.902 159.525 191.04C158.881 189.646 161.283 190.44 160.609 189.054C159.042 185.826 156.968 182.642 154.649 179.821C153.66 178.624 153.522 181.572 152.351 179.934C144.342 168.801 136.367 157.943 130.335 145.25C129.922 144.379 132.447 141.595 130.713 140.343C129.792 140.801 128.817 141.494 127.888 142.063C115.963 126.041 105.676 109.122 94.3599 92.6065C93.8825 91.9104 93.1277 94.2189 92.1952 92.8769C86.7965 85.1108 81.0903 77.8939 77.1255 68.8604C76.7298 67.9657 79.8113 66.4107 77.7662 64.3891C77.403 64.0343 74.5872 60.8047 73.348 60.3273C73.1706 60.2688 72.3097 61.8199 71.4846 60.7216C66.7123 54.3234 62.2175 47.2643 58.4499 40.1801C57.8444 39.035 60.0205 39.1831 59.6012 38.3591C56.6168 32.5212 51.5095 27.4735 49.2152 21.505C47.6845 17.5065 50.9712 17.0837 52.0732 13.6188C52.2282 13.1293 50.8066 10.9848 52.1077 9.91206C55.3755 7.20886 59.8824 5.57605 63.2811 2.57408C64.0144 1.9292 61.1831 -0.294019 64.274 0.032547C64.4843 0.0593066 66.5538 1.65938 67.5583 1.70728C68.2545 1.74284 69.2129 0.130375 70.2908 0.442662C71.3681 0.755267 70.7443 2.36354 72.2526 3.07622C73.769 3.78249 74.9976 2.14582 76.844 4.38324ZM508.813 668.895C508.841 666.085 503.746 669.238 506.336 670.444C506.468 670.498 508.815 669.037 508.813 668.895ZM668.182 895.02C668.63 891.058 664.279 891.606 663.818 894.502C663.359 897.397 668.048 896.224 668.182 895.02ZM687.53 919.312C687.232 915.257 679.966 919.669 683.516 921.752C683.72 921.875 687.548 919.549 687.53 919.312ZM58.6155 21.5341C58.6625 21.4627 57.666 19.9034 57.5761 19.9123C55.4551 20.1948 57.4488 23.3121 58.6155 21.5341ZM706.882 943.312C707.197 941.761 704.311 939.947 703.919 941.876C703.604 943.428 706.491 945.244 706.882 943.312ZM445.667 567.508C445.72 567.428 445.026 566.296 444.628 566.606C443.35 567.61 444.783 568.859 445.667 567.508ZM736.932 986.09C732.766 979.579 735.822 971.725 739.996 979.07C740.752 980.4 736.283 977.661 736.877 979.612C737.968 983.178 742.923 982.586 743.067 986.903C743.089 987.688 737.157 986.471 736.916 986.085C736.921 986.087 736.926 986.089 736.932 986.09ZM513.946 663.697C513.984 663.614 512.994 662.067 512.904 662.076C510.779 662.351 512.773 665.467 513.946 663.697ZM404.355 502.011C404.435 501.832 402.123 498.252 401.916 498.228C398.098 498.188 402.765 505.43 404.355 502.011ZM588.381 762.446C591.094 762.991 592.652 764.825 591.601 767.508C590.564 765.804 589.432 764.152 588.381 762.446ZM1.4587 965.591C4.88184 959.789 10.3851 952.896 14.8472 947.852C16.2436 946.27 16.5036 947.748 17.5066 946.683C19.4672 944.6 20.5532 942.141 22.5593 940.13C23.2284 939.467 23.9427 941.375 24.6128 940.658C28.2749 936.718 30.8136 932.344 34.1998 928.127C50.8816 907.357 66.3774 886.31 82.4295 864.702C87.7211 857.577 95.1526 849.614 99.8599 841.724C100.408 840.802 98.8349 840.479 98.852 840.243C99.1582 836.561 100.988 839.137 102.507 837.655C108.528 831.772 113.913 824.313 118.011 817.464C119.751 814.547 115.405 815.651 118.707 813.799C118.933 813.669 119.723 815.27 120.393 814.605C121.908 813.094 123.97 809.659 125.007 808.393C127.013 805.957 127.299 805.521 129.019 803.093C131.383 799.781 134.794 796.263 137.006 792.483C137.474 791.674 135.452 791.765 136.081 790.39C136.71 789.016 139.077 785.87 140.147 785C141.218 784.13 141.927 785.316 142.299 785.289C145.405 785.105 145.245 779.439 145.513 778.912C150.466 769.348 157.292 762.95 163.033 754.735C167.388 748.497 171.531 741.467 175.752 735.586C180.787 728.582 185.69 723.092 190.371 716.141C190.866 715.408 188.726 715.176 189.328 714.279C195.726 704.752 202.427 695.534 210.02 686.903C210.783 686.039 211.294 688.198 212.137 687.391C217.27 682.429 226.307 675.218 222.784 667.673C225.736 663.945 229.278 659.39 232.904 656.743C235.241 655.036 235.195 658.25 236.492 655.052C236.786 654.332 234.926 654.235 235.465 653.223C237.737 648.967 241.159 644.973 243.206 640.623C243.62 639.736 242.309 639.139 242.256 638.769C241.88 635.705 246.867 634.531 247.548 633.991C252.7 629.855 254.759 625.642 258.183 620.827C258.979 619.71 256.491 619.947 257.2 618.833C260.9 613.07 265.098 607.356 269.631 602.349C270.643 601.238 271.184 603.29 271.736 602.807C274.152 600.664 272.043 598.34 274.312 596.251C274.787 595.808 275.718 596.896 275.91 596.889C278.908 596.774 277.035 593.541 277.241 593.117C279.785 587.698 284.844 586.637 287.7 581.681C288.039 581.086 285.72 581.34 286.76 579.729C293.681 568.992 301.815 558.207 310.209 548.659C311.512 547.173 311.789 549.078 311.993 549.07C315.228 548.875 313.188 545.856 313.45 545.257C315.592 540.588 320.636 538.356 319.284 533.219C332.706 516.49 343.054 497.729 358.197 482.42C358.386 482.223 359.482 483.58 359.853 483.183C364.341 478.41 361.493 477.937 361.343 472.597C361.307 471.253 366.342 470.764 366.74 470.687C368.199 470.415 369.611 472.744 369.979 472.569C372.957 471.069 365.928 466.734 368.196 463.487C368.278 463.394 369.223 464.69 369.538 464.504C370.518 463.929 370.611 462.745 371.618 462.216C373.935 461.014 377.69 462.635 377.805 458.404C377.813 457.864 373.59 455.742 375.798 452.971C376.682 451.869 380.194 446.71 381.445 445.45C382.694 444.192 383.242 446.039 383.366 445.975C387.698 443.26 387.351 445.196 391.121 444.955C394.881 444.708 388.762 441.225 388.672 439.989C388.585 438.753 391.91 436.868 392.865 436.501C393.819 436.134 393.998 437.549 394.695 437.117C399.292 434.234 393.101 433.325 393.134 431.338C393.201 426.647 399.194 427.149 401.649 424.529C402.313 423.82 400.893 423.784 401.293 423.019C402.891 419.998 405.389 419.257 406.383 415.243C406.546 414.586 405.773 410.239 408.81 409.9C409.245 409.855 409.841 411.263 410.907 410.245C412.502 408.726 414.964 405.701 415.94 403.55C416.66 401.963 413.785 402.348 415.565 400.961C416.357 400.345 416.362 402.517 417.765 401.3C419.162 400.092 421.743 396.307 422.707 394.855C423.668 393.404 421.795 393.256 421.786 393.078C421.762 392.023 423.037 388.839 423.207 388.599C431.578 376.291 441.682 366.61 449.249 354.22C449.845 353.249 448.011 352.89 448.088 352.732C449.734 349.132 451.694 354.25 454.498 352.893C451.433 351.228 452.868 350.273 454.128 347.808C454.734 346.619 453.222 346.439 453.178 346.262C452.632 343.488 455.571 343.879 456.214 343.899C458.581 343.972 457.473 341.473 459.064 341.508C460.647 341.538 461.078 344.319 462.566 342.15C461.972 340.835 458.197 340.576 458.911 338.639C461.602 331.327 471.748 321.262 475.437 316.45C479.119 311.649 480.051 309.917 482.438 307.288C486.75 302.539 483.442 303.071 484.806 299.202C486.175 295.325 489.92 300.295 491.288 300.558C492.651 300.829 491.928 299.578 492.9 299.409C493.87 299.242 493.718 300.967 494.868 299.782C496.018 298.595 496.722 293.644 495.963 292.407C494.355 289.79 490.78 289.742 494.106 286.8C494.299 286.632 495.112 288.184 495.786 287.496C501.096 281.996 505.654 275.611 510.845 270.039C511.561 269.274 512.448 271.027 512.88 270.593C517.391 266.077 513.711 266.245 513.03 261.564C516.122 264.671 519.377 264.623 522.133 260.729C523.79 258.389 521.963 257.713 521.938 255.432C521.929 254.747 524.153 253.826 523.637 253.016C521.959 250.362 518.206 250.069 522.084 246.779C522.258 246.638 523.163 248.11 523.669 247.554C526.948 243.965 524.795 241.756 527.482 237.276C529.587 233.765 535.264 228.874 538.176 225.236C542.095 228.097 543.703 223.862 541.984 220.485C543.826 218.09 545.539 215.312 547.59 213.187C548.295 212.455 549.068 213.8 549.265 213.783C552.328 213.558 550.414 210.617 550.683 210.011C553.714 203.515 559.032 200.216 560.92 193.314C560.985 193.069 558.447 190.82 561.495 190.754C561.701 190.756 561.681 193.458 563.595 190.929C565.51 188.4 570.416 184.54 571.659 180.039C571.962 178.951 571.265 175.175 574.255 174.629C574.658 174.56 575.269 175.372 575.948 175.34C578.123 175.221 575.753 172.667 579.029 173.032C582.305 173.396 585.965 171.946 586.873 167.165C586.907 167.016 585.297 164.608 586.132 163.489C587.467 161.704 589.741 159.435 591.06 157.518C591.691 156.601 589.909 156.224 589.995 156.048C593.519 149.373 597.799 145.862 602.93 139.66C603.873 138.525 604.423 133.752 607.536 132.455C610.949 131.027 615.851 138.377 618.364 131.365C619.383 128.541 612.932 119.549 620.35 118.382C625.043 109.337 632.668 103.269 636.907 93.8714C637.099 93.4497 635.537 90.599 636.183 89.7441C637.148 88.4783 638.764 88.544 639.488 87.6652C642.552 84.0026 644.093 79.7679 646.87 76.1137C647.923 74.7247 648.728 76.0308 649.983 74.3743C651.236 72.718 650.51 70.5207 652.856 68.7296C654.633 67.3806 658.957 67.8129 660.935 65.756C657.934 63.5245 659.107 61.9821 660.271 58.5961C660.494 57.944 659.021 57.7794 659.071 57.4326C659.252 56.0046 660.811 55.6567 660.907 54.2474C660.932 53.9059 659.893 53.1626 659.855 52.8419C659.487 50.0883 663.772 48.9738 664.513 48.7863C667.341 48.0577 666.574 46.2563 668.162 45.2912C669.749 44.3282 669.059 46.9449 670.568 45.5794C673.695 42.7477 676.555 38.3 678.997 34.9114C679.966 33.5548 677.917 33.5093 678.023 33.2925C679.645 30.2211 683.128 28.4052 681.442 24.8933C690.004 27.9675 681.936 22.7028 686.199 19.6739C686.538 19.4376 690.222 21.4126 689.868 22.9825C689.512 24.552 687.154 25.6592 686.748 27.8971C686.65 28.426 688.23 32.9529 688.203 33.4015C687.994 36.9122 682.668 33.7043 682.298 33.6388C678.255 33.004 679.724 38.2137 679.444 39.1188C678.165 43.2611 675.44 45.6345 674.237 49.0059C673.444 51.2066 676.646 53.7172 675.528 55.0984C671.813 59.6918 665.989 58.1282 666.832 65.4962C667.008 67.0728 671.325 68.649 666.018 70.1434C665.684 70.2369 661.25 71.0014 661.856 73.6595C661.933 73.9938 662.998 74.7299 662.913 75.0406C662.324 77.1087 660.703 77.6278 659.838 79.7245C658.974 81.8209 658.051 84.4238 656.243 86.2426C655.155 87.34 652.059 87.5584 651.157 87.8174C648.584 88.5293 649.603 91.936 647.185 91.8004C644.752 91.6676 643.618 87.8057 640.589 89.802C643.272 91.8321 645.935 94.0457 648.591 96.1488C644.257 102.136 639.198 107.471 635.068 113.632C634.559 114.397 636.579 114.663 636.072 115.511C633.923 119.082 630.786 121.319 628.734 125.146C627.152 128.113 626.622 132.209 625.016 135.345C620.641 134.886 618.743 139.878 616.298 142.759C615.443 143.769 614.651 143.108 613.839 143.683C610.796 145.87 614.532 146.461 614.415 147.562C613.902 152.278 607.392 148.159 604.737 152.285C604.594 152.502 606.135 157.455 606.094 157.96C605.865 161.192 604.66 157.518 603.415 158.77C601.141 161.054 599.073 162.3 597.922 166.041C597.591 167.135 598.192 170.736 595.362 171.331C594.991 171.41 593.968 170.506 593.775 170.644C590.372 173.198 593.802 175.728 593.66 178.448C593.517 181.168 589.061 182.406 587.95 182.515C585.064 182.815 588.017 180.785 587.9 180.578C586.494 178.119 585.364 180.504 584.046 182.01C580.458 179.851 579.069 182.274 582.694 183.58C583.093 183.719 583.661 182.228 584.046 182.01C586.404 185.79 585.081 188.596 580.007 189.166C577.63 189.432 576.772 187.008 574.647 191.38C573.681 193.364 576.521 194.323 576.061 196.348C575.009 200.973 569.538 204.112 567.288 208.065C566.471 209.5 568.68 209.09 568.166 210.102C566.807 212.789 564.332 214.266 563.111 217.066C563.002 217.321 564.733 217.723 564.216 218.498C560.327 224.39 555.939 228.821 551.69 234.842C549.638 237.752 546.733 243.489 544.469 246.406C540.553 251.468 534.081 256.537 531.427 261.346C529.69 264.478 531.489 264.782 531.534 266.677C531.63 270.338 525.446 272.374 524.549 272.603C524.52 272.609 525.959 269.874 524.328 270.729C522.338 270.498 524.562 272.57 524.549 272.603C523.965 272.757 520.148 277.559 519.709 278.736C519.472 279.375 520.963 279.968 520.815 280.285C517.267 287.794 512.891 294.742 507.532 301.127C507.422 301.228 506.117 300.046 505.877 300.298C502.485 303.791 502.471 307.539 501.238 311.515C500.005 315.49 497.854 317.822 494.052 318.025C492.646 320.692 489.1 323.448 487.025 325.01C484.95 326.572 487.539 328.804 487.47 329.021C485.348 335.807 481.507 337.901 477.228 343.488C475.189 346.14 471.792 351.856 470.023 355.034C468.628 357.549 466.987 358.504 465.894 360.956C465.745 361.287 467.193 361.86 467.178 361.983C466.976 365.431 464.754 362.151 463.864 362.269C460.632 362.695 458.803 363.075 457.57 366.81C457.284 367.67 460.201 372.799 459.548 374.276C458.692 376.19 457.572 374.458 456.715 376.489C456.64 376.662 457.628 377.307 456.823 378.367C453.097 383.299 448.674 388.423 445.091 393.75C444.598 394.475 446.774 394.626 446.087 395.691C442.861 400.688 439.069 405.987 435.032 410.23C434.034 411.271 433.474 409.788 432.978 409.819C429.962 410.027 431.217 414.194 431.016 414.595C426.283 424.224 419.097 429.1 414.108 438.798C413.841 439.33 414.247 445.14 410.515 444.994C410.264 444.988 406.485 444.783 407.272 447.491C407.322 447.659 409.392 447.588 408.008 449.272C406.624 450.956 405.524 454.456 402.321 455.861C401.31 456.308 397.401 456.301 397.878 460.078C397.919 460.331 400.157 467.213 395.999 466.201C395.316 466.031 392.01 463.396 391.852 467.396C391.827 468.163 393.268 467.746 392.778 469.471C392.031 472.118 389.132 474.29 388.842 477.983C388.796 478.63 389.784 482.214 386.913 482.525C386.463 482.574 385.633 481.303 384.929 482.035C381.572 485.514 379.478 490.15 375.901 493.563C374.636 494.773 373.273 492.748 371.747 493.865C370.221 494.982 367.673 497.6 367.452 499.731C367.231 501.863 371.378 502.267 370.007 504.733C364.046 515.452 355.373 524.134 348.134 533.938C347.06 535.391 348.983 534.909 347.476 537.104C341.928 545.204 333.209 559.789 326.064 565.187C320.34 569.512 323.885 561.509 320.158 565.267C318.364 567.083 320.26 571.733 320.021 572.307C317.724 577.944 313.828 580.252 311.235 584.958C310.7 585.93 312.722 586.024 312.251 586.841C310.656 589.638 308.098 591.962 306.455 594.553C305.722 595.718 306.937 596.259 306.13 597.238C304.209 599.588 302.225 601.466 299.53 603.182C299.284 603.339 298.993 600.921 297.659 602.722C295.505 605.638 291.936 608.632 290.568 612.763C290.166 613.992 292.584 615.743 289.37 616.741C288.697 616.951 286.168 614.313 286.93 618.627C287.053 619.349 287.492 626.008 283.822 626.557C282.855 626.703 279.465 626.43 278.99 627.913C278.935 628.121 280.712 628.378 280.133 629.478C278.071 633.338 275.32 636.971 273.172 640.917C272.602 641.972 274.979 641.469 274.085 643.011C271.627 647.255 267.784 652.011 264.62 655.628C263.45 656.959 263.022 655.174 262.826 655.193C259.651 655.487 261.643 658.368 261.408 659.038C259.908 663.181 256.787 664.951 254.874 668.399C254.342 669.348 256.065 669.616 256.056 669.873C255.893 672.486 254.543 669.51 253.478 670.491C250.488 673.234 248.059 676.925 245.926 680.322C245.144 681.572 247.58 681.257 246.862 682.366C242.637 688.951 237.836 695.509 232.642 701.186C231.661 702.253 231.034 700.711 230.601 700.773C227.587 701.183 228.351 705.408 228.189 706.144C227.462 709.497 225.744 709.795 224.331 712.216C217.448 724.058 207.116 737.397 199.315 747.664C189.156 761.047 180.598 770.959 171.703 784.275C171.136 785.12 173.248 785.346 172.779 786.088C166.654 795.624 159.667 804.343 153.601 813.948C153.101 814.735 155.315 814.646 154.561 815.942C153.023 818.607 150.718 821.734 148.48 823.951C147.391 825.035 147.314 822.506 146.243 823.614C143.747 826.192 141.466 829.232 139.611 832.376C138.825 833.716 141.642 832.836 140.505 834.497C132.79 845.836 125.323 857.049 115.465 867.066C114.789 867.752 111.308 866.334 110.726 868.392C111.472 869.1 112.457 869.779 113.31 870.457C102.345 887.15 89.9757 902.612 78.3376 918.903C77.8473 919.59 80.2747 919.508 79.3335 920.844C73.8877 928.577 69.0631 936.41 61.9353 943.231C61.2304 943.909 58.7135 941.547 57.5152 944.161C57.3064 944.624 55.2372 948.376 55.2134 949.704C55.2192 949.89 56.9714 950.168 56.2224 951.319C51.847 957.995 46.7556 964.637 41.3915 970.604C40.5232 971.565 39.9166 969.47 39.2862 970.146C34.8245 974.951 31.8326 981.479 27.0118 985.679C23.7799 988.487 22.2564 985.545 18.6237 985.697C18.1107 985.719 16.5832 987.789 15.1295 986.935C11.4702 984.791 8.3918 981.117 4.40688 978.952C3.54977 978.484 2.43141 981.906 1.67901 978.891C1.63209 978.684 2.42608 976.191 2.12684 975.231C1.92166 974.565 0.0784101 974.217 0.00241375 973.097C-0.0730858 971.978 1.65158 972.013 1.80422 970.352C1.94809 968.685 -0.0104952 968.092 1.4587 965.591ZM477.704 332.059C475.055 332.996 479.763 336.701 480.008 333.855C480.014 333.713 477.838 332.008 477.704 332.059ZM635.524 104.85C631.649 105.787 633.655 109.687 636.533 109.127C639.41 108.567 636.702 104.563 635.524 104.85ZM651.716 78.3488C648.009 80.0186 654.643 85.3324 655.384 81.2834C655.429 81.0494 651.932 78.2508 651.716 78.3488ZM23.8178 976.838C23.7346 976.818 22.6112 978.289 22.6503 978.37C23.6426 980.266 25.8879 977.325 23.8178 976.838ZM667.631 51.9443C666.066 52.1801 665.351 55.5123 667.297 55.22C668.863 54.9843 669.579 51.6497 667.631 51.9443ZM404.096 426.125C404.003 426.103 403.177 427.143 403.605 427.41C404.986 428.267 405.669 426.493 404.096 426.125ZM697.521 9.05432C692.832 15.1997 684.406 15.0198 689.876 8.58137C690.866 7.41538 689.824 12.5521 691.453 11.3258C694.43 9.07901 692.176 4.62686 696.183 3.0123C696.912 2.72267 697.801 8.71268 697.521 9.0711C697.521 9.06561 697.521 9.05991 697.521 9.05432ZM471.062 329.018C470.971 329.01 469.858 330.471 469.897 330.552C470.883 332.455 473.127 329.513 471.062 329.018ZM356.722 487.381C356.526 487.367 353.956 490.766 354.003 490.969C355.274 494.569 360.479 487.703 356.722 487.381ZM538.324 225.25C537.907 222.514 539.096 220.423 541.976 220.491C540.731 222.048 539.568 223.678 538.324 225.25Z" fill="#A42424"/>
</svg>
