<svg xmlns="http://www.w3.org/2000/svg" viewBox="0 0 128 128" role="img" aria-label="Poke Fight Icon">
  <defs>
    <radialGradient id="bg" cx="50%" cy="35%" r="75%">
      <stop offset="0" stop-color="#2b437f"/>
      <stop offset="1" stop-color="#0f1628"/>
    </radialGradient>
    <linearGradient id="blade" x1="0" x2="1">
      <stop offset="0" stop-color="#d5e4ff"/>
      <stop offset="1" stop-color="#8aa7e8"/>
    </linearGradient>
  </defs>

  <rect width="128" height="128" rx="26" fill="url(#bg)"/>

  <g opacity="0.9">
    <path d="M27 34 L57 64 L51 70 L21 40 Z" fill="url(#blade)"/>
    <path d="M101 34 L71 64 L77 70 L107 40 Z" fill="url(#blade)"/>
    <rect x="45" y="66" width="14" height="7" rx="3" fill="#f9c24c" transform="rotate(45 52 69)"/>
    <rect x="69" y="66" width="14" height="7" rx="3" fill="#f9c24c" transform="rotate(-45 76 69)"/>
  </g>

  <g transform="translate(64 74)">
    <circle r="30" fill="#ffffff" stroke="#151a2b" stroke-width="4"/>
    <path d="M-30 0 A30 30 0 0 1 30 0" fill="#e14758"/>
    <path d="M-30 0 A30 30 0 0 0 30 0" fill="#f6f7fb"/>
    <rect x="-30" y="-3" width="60" height="6" fill="#151a2b"/>
    <circle r="9" fill="#ffffff" stroke="#151a2b" stroke-width="4"/>
    <circle r="4" fill="#7ba2ff"/>
  </g>
</svg>
